<svg id="Layer_1" data-name="Layer 1" xmlns="http://www.w3.org/2000/svg" viewBox="0 0 512 512"><title>paint-brush</title><circle cx="256" cy="256" r="256" fill="#f3eeda"/><path d="M302.34,152.59c-55.58-52.15-188.78-28.21-180,134.09,3.44,63,84,71.67,97.43,24.07,3.81-13.45,16.62-42.08,38.39-40.69,26.93,1.71,43,4,59.6-13.75C340,232.64,347.88,195.32,302.34,152.59Zm-135.68,19.3a15.81,15.81,0,1,1,11.17,19.35A15.8,15.8,0,0,1,166.66,171.89ZM164.13,235a15.8,15.8,0,1,1,7.65-21A15.81,15.81,0,0,1,164.13,235Zm74.35-64.61a15.81,15.81,0,1,1,3.88-22A15.82,15.82,0,0,1,238.48,170.4Zm23.47,2a15.8,15.8,0,1,1,14.37,17.12A15.82,15.82,0,0,1,261.95,172.41ZM183.26,319.8c-13.13,5.14-27.2.55-31.41-10.24s3-23.69,16.14-28.83,27.19-.55,31.41,10.23S196.39,314.66,183.26,319.8ZM293,228.51a15.8,15.8,0,1,1,22.34,0A15.79,15.79,0,0,1,293,228.51Z" fill="#98d3cb"/><path d="M301.45,337.25l4.55-4.53-.92-.92c29.36-33.5,47.75-54.67,77.45-87.85,17.69-19.73,1.05-36.36-18.67-18.66C330.7,255,309.51,273.38,276,302.74l-.92-.93-4.54,4.54,1.67,1.68c-6.7,10.92-11.86,19.21-19.05,30a21.17,21.17,0,0,0-2.57-.34l-.36,0A21.77,21.77,0,0,0,245,338l-.21,0a20.29,20.29,0,0,0-2.28.6l-.45.14a20.25,20.25,0,0,0-2.37,1h0a21.6,21.6,0,0,0-2.28,1.31c-.16.1-.3.21-.46.31-.57.4-1.12.82-1.65,1.27l-.52.45a21.47,21.47,0,0,0-1.87,1.9,21.19,21.19,0,0,0-4.72,9.72c-1.42,7.26-1,25.76-12.82,27.45,0,0,24.88,5.77,40.45-2.42a28.65,28.65,0,0,0,9.3-7.11,21.14,21.14,0,0,0,4.69-18c10.79-7.2,19.09-12.35,30-19.07Z" fill="#98d3cb"/></svg>