<svg id="Layer_1" data-name="Layer 1" xmlns="http://www.w3.org/2000/svg" viewBox="0 0 512 512"><title>atom-flat</title><circle cx="256" cy="256" r="256" fill="#f3eeda"/><path d="M256,114.88c-28.72,0-52,63.18-52,141.12s23.28,141.12,52,141.12S308,333.94,308,256,284.72,114.88,256,114.88Zm0,259.28c-24,0-43.53-52.9-43.53-118.16S232,137.84,256,137.84s43.53,52.9,43.53,118.16S280,374.16,256,374.16Z" fill="#98d3cb"/><path d="M397.12,256c0-28.71-63.18-52-141.12-52s-141.12,23.27-141.12,52S178.06,308,256,308,397.12,284.72,397.12,256Zm-259.28,0c0-24,52.91-43.53,118.16-43.53S374.16,232,374.16,256,321.26,299.53,256,299.53,137.84,280,137.84,256Z" fill="#98d3cb"/><path d="M355.79,156.22c-20.31-20.3-81.44,7.91-136.55,63s-83.33,116.24-63,136.55,81.44-7.91,136.55-63S376.09,176.52,355.79,156.22ZM172.45,339.56c-17-17,6.63-68.19,52.77-114.33s97.34-69.77,114.34-52.77-6.63,68.19-52.77,114.33S189.45,356.56,172.45,339.56Z" fill="#98d3cb"/><path d="M355.79,355.79c20.3-20.3-7.91-81.44-63-136.55s-116.24-83.33-136.55-63,7.91,81.44,63,136.55S335.48,376.09,355.79,355.79ZM172.45,172.44c17-17,68.19,6.63,114.33,52.77s69.78,97.34,52.77,114.34-68.18-6.63-114.33-52.78S155.45,189.45,172.45,172.44Z" fill="#98d3cb"/><path d="M277.95,256a21.78,21.78,0,1,0-21.78,21.77A21.78,21.78,0,0,0,277.95,256Z" fill="#98d3cb"/></svg>