<svg id="Layer_1" data-name="Layer 1" xmlns="http://www.w3.org/2000/svg" viewBox="0 0 512 512"><title>open-book-flat</title><circle cx="256" cy="256" r="256" fill="#f3eeda"/><path d="M403,345.86c0,13.68-12,24.78-26.92,24.78H135.91C121,370.64,109,359.55,109,345.86V166.14c0-13.69,12.05-24.78,26.92-24.78H376.1c14.87,0,26.92,11.09,26.92,24.78Z" fill="#97d1c9"/><rect x="127.75" y="152.79" width="252.99" height="200.38" fill="#f3eeda"/><rect x="127.75" y="152.79" width="11.44" height="200.38" fill="#f3eeda"/><rect x="251.32" y="152.79" width="5.85" height="200.38" fill="#98d3cb"/><rect x="144.89" y="177.41" width="95.83" height="5.85" fill="#98d3cb"/><rect x="144.89" y="196.06" width="95.83" height="5.85" fill="#98d3cb"/><rect x="144.89" y="217.11" width="95.83" height="5.85" fill="#98d3cb"/><rect x="144.89" y="235.76" width="95.83" height="5.85" fill="#98d3cb"/><rect x="144.89" y="253.07" width="95.83" height="5.85" fill="#98d3cb"/><rect x="144.89" y="271.73" width="95.83" height="5.85" fill="#98d3cb"/><rect x="144.89" y="292.81" width="95.83" height="5.85" fill="#98d3cb"/><rect x="144.89" y="311.47" width="95.83" height="5.85" fill="#98d3cb"/><rect x="275.42" y="177.41" width="95.83" height="5.85" fill="#98d3cb"/><rect x="275.42" y="196.06" width="95.83" height="5.85" fill="#98d3cb"/><rect x="275.42" y="217.11" width="95.83" height="5.85" fill="#98d3cb"/><rect x="275.42" y="235.76" width="95.83" height="5.85" fill="#98d3cb"/><rect x="275.42" y="253.07" width="95.83" height="5.85" fill="#98d3cb"/><rect x="275.42" y="271.73" width="95.83" height="5.85" fill="#98d3cb"/><rect x="275.42" y="292.81" width="95.83" height="5.85" fill="#98d3cb"/><rect x="275.42" y="311.47" width="95.83" height="5.85" fill="#98d3cb"/></svg>