<svg id="Layer_1" data-name="Layer 1" xmlns="http://www.w3.org/2000/svg" viewBox="0 0 512 512"><title>gears-flat</title><circle cx="256" cy="256" r="256" fill="#f3eeda"/><path d="M174.14,344.91a31.69,31.69,0,1,1,31.69-31.69A31.69,31.69,0,0,1,174.14,344.91Z" fill="#98d3cb"/><path d="M235,302a61.47,61.47,0,0,0-9.4-23.16l1.4-1.4c2.36-2.36,8.93-12.79,6.57-15.16L226,254.8c-2.36-2.36-12.79,4.2-15.15,6.56l-1.22,1.23a61.52,61.52,0,0,0-24.13-10.16h0c0-3.34-2.73-15.08-6.07-15.08H168.82c-2.82,0-5.21,10-5.88,15.05a61.5,61.5,0,0,0-23.11,9.37l-.41-.4c-2.36-2.36-12.79-8.93-15.15-6.56l-7.51,7.51c-2.36,2.36,4.21,12.79,6.57,15.16l.2.2a61.57,61.57,0,0,0-10.19,24.18c-3.67.13-15.09,2.81-15.09,6.06v10.62c0,3.25,11.41,5.92,15.09,6.06a61.6,61.6,0,0,0,10.48,24.59c-3.07,4.43-6.84,11.2-5.11,12.92l7.51,7.51c2,2,9.69-2.29,13.4-5.08A61.54,61.54,0,0,0,162.76,374c.14,3.66,2.81,15.08,6.06,15.08h10.62c3.25,0,5.93-11.41,6.07-15.08a61.43,61.43,0,0,0,24.21-10.21c3.15,2.66,12.15,8,14.35,5.82l7.51-7.51c1.93-1.92-3-10.12-6.14-14.34a61.51,61.51,0,0,0,9.49-23.16h0c3.34,0,15.08-2.73,15.08-6.07V307.91C250,305.08,240,302.69,235,302ZM174.14,361.1A47.88,47.88,0,1,1,222,313.22,47.88,47.88,0,0,1,174.14,361.1Z" fill="#98d3cb"/><path d="M262,224.71A31.69,31.69,0,1,1,293.68,193,31.69,31.69,0,0,1,262,224.71Z" fill="#98d3cb"/><path d="M322.81,181.82a61.5,61.5,0,0,0-9.4-23.16l1.4-1.4c2.36-2.36,8.93-12.8,6.57-15.16l-7.51-7.51c-2.36-2.36-12.79,4.2-15.15,6.56l-1.22,1.22a61.54,61.54,0,0,0-24.12-10.16h0c0-3.34-2.73-15.08-6.07-15.08H256.68c-2.82,0-5.21,10-5.88,15a61.47,61.47,0,0,0-23.11,9.37l-.4-.4c-2.36-2.36-12.79-8.93-15.15-6.56l-7.51,7.51c-2.36,2.36,4.21,12.8,6.57,15.16l.2.2a61.48,61.48,0,0,0-10.19,24.18c-3.67.13-15.09,2.8-15.09,6.06v10.62c0,3.25,11.41,5.93,15.09,6.06A61.57,61.57,0,0,0,211.69,229c-3.07,4.43-6.84,11.2-5.12,12.92l7.51,7.51c2,2,9.69-2.29,13.4-5.07a61.52,61.52,0,0,0,23.13,9.47c.13,3.66,2.81,15.08,6.06,15.08H267.3c3.25,0,5.93-11.41,6.07-15.08a61.56,61.56,0,0,0,24.21-10.21c3.15,2.66,12.15,8,14.35,5.82l7.51-7.51c1.93-1.93-3-10.11-6.14-14.34a61.55,61.55,0,0,0,9.49-23.16h0c3.34,0,15.08-2.73,15.08-6.07V187.71C337.86,184.88,327.9,182.49,322.81,181.82ZM262,240.9A47.88,47.88,0,1,1,309.88,193,47.88,47.88,0,0,1,262,240.9Z" fill="#98d3cb"/><path d="M337.86,350.67A31.69,31.69,0,1,1,369.55,319,31.69,31.69,0,0,1,337.86,350.67Z" fill="#98d3cb"/><path d="M398.68,307.79a61.52,61.52,0,0,0-9.4-23.16l1.39-1.39c2.36-2.36,8.94-12.8,6.58-15.16l-7.51-7.51c-2.36-2.37-12.79,4.2-15.15,6.57l-1.22,1.22a61.5,61.5,0,0,0-24.13-10.16h0c0-3.34-2.73-15.08-6.07-15.08H332.55c-2.82,0-5.21,10-5.88,15a61.56,61.56,0,0,0-23.11,9.37l-.4-.4c-2.36-2.36-12.79-8.93-15.15-6.57l-7.51,7.51c-2.36,2.36,4.21,12.79,6.57,15.16l.2.2a61.48,61.48,0,0,0-10.19,24.18c-3.67.13-15.09,2.81-15.09,6.06v10.62c0,3.25,11.41,5.92,15.09,6.06a61.52,61.52,0,0,0,10.48,24.59c-3.07,4.43-6.84,11.19-5.12,12.92l7.51,7.51c2,2,9.69-2.29,13.4-5.08a61.47,61.47,0,0,0,23.13,9.47c.13,3.66,2.81,15.08,6.06,15.08h10.62c3.25,0,5.93-11.4,6.07-15.08a61.43,61.43,0,0,0,24.2-10.21c3.15,2.66,12.15,8,14.35,5.82l7.51-7.51c1.93-1.93-3-10.11-6.14-14.34a61.52,61.52,0,0,0,9.49-23.15h0c3.34,0,15.08-2.73,15.08-6.07V313.67C413.74,310.85,403.77,308.46,398.68,307.79Zm-60.82,59.07A47.88,47.88,0,1,1,385.75,319,47.88,47.88,0,0,1,337.86,366.86Z" fill="#98d3cb"/></svg>