<svg id="Layer_1" data-name="Layer 1" xmlns="http://www.w3.org/2000/svg" viewBox="0 0 512 512"><title>globe-flat</title><circle cx="256" cy="256" r="256" fill="#f3eeda"/><circle cx="256" cy="233.8" r="109.37" fill="#97d1c9"/><path d="M310.27,417.27H197.37a7.17,7.17,0,1,1,0-14.34H310.27a7.17,7.17,0,0,1,0,14.34Z" fill="#98d3cb"/><path d="M255.16,417.27A7.17,7.17,0,0,1,248,410.1V372.59a7.17,7.17,0,1,1,14.34,0V410.1A7.17,7.17,0,0,1,255.16,417.27Z" fill="#98d3cb"/><path d="M256,372.88c-76.69,0-139.08-62.39-139.08-139.08S179.31,94.73,256,94.73a7.17,7.17,0,1,1,0,14.34A124.74,124.74,0,1,0,380.74,233.8a7.17,7.17,0,0,1,14.34,0C395.08,310.49,332.69,372.88,256,372.88Z" fill="#98d3cb"/><path d="M256,345.86a2.69,2.69,0,0,1-2.69-2.69V124.43a2.69,2.69,0,0,1,5.38,0V343.17A2.69,2.69,0,0,1,256,345.86Z" fill="#f3eeda"/><path d="M257.83,183.62c-50.09,0-86.44-17.2-87-17.46a2.69,2.69,0,0,1,2.34-4.84c.79.38,80.38,37.94,165.7,0a2.69,2.69,0,0,1,2.19,4.91A203.56,203.56,0,0,1,257.83,183.62Z" fill="#f3eeda"/><path d="M172,306.21a2.69,2.69,0,0,1-1.09-5.14c87.66-39,169.41-.36,170.23,0a2.69,2.69,0,1,1-2.35,4.84c-.79-.38-80.38-37.94-165.7,0A2.72,2.72,0,0,1,172,306.21Z" fill="#f3eeda"/><path d="M365.37,236.49H146.63a2.69,2.69,0,1,1,0-5.38H365.37a2.69,2.69,0,0,1,0,5.38Z" fill="#f3eeda"/><path d="M225.48,342.37a2.69,2.69,0,0,1-2.08-1C178.18,286.58,180.58,230,190.57,192.22c10.79-40.82,31.89-68.29,32.78-69.44a2.69,2.69,0,1,1,4.24,3.3c-.21.28-21.4,27.88-31.87,67.69-14,53.14-3.28,101.65,31.82,144.19a2.69,2.69,0,0,1-2.07,4.4Z" fill="#f3eeda"/><path d="M292.91,342.37a2.69,2.69,0,0,1-2.07-4.4c35.14-42.59,45.83-91.16,31.78-144.37-10.51-39.77-31.62-67.24-31.83-67.51a2.69,2.69,0,1,1,4.24-3.3c.89,1.15,22,28.61,32.78,69.44,10,37.8,12.4,94.36-32.83,149.17A2.69,2.69,0,0,1,292.91,342.37Z" fill="#f3eeda"/></svg>