<svg id="Layer_1" data-name="Layer 1" xmlns="http://www.w3.org/2000/svg" viewBox="0 0 512 512"><title>light-bulb-flat</title><circle cx="256" cy="256" r="256" fill="#f3eeda"/><path d="M329.09,233.31a74.29,74.29,0,1,0-123.87,55.32c17.87,26.39,14.36,54.27,14.36,54.27H254.8v1.61h32s-4.07-32.38,20.43-58.6A74.06,74.06,0,0,0,329.09,233.31Z" fill="#98d3cb"/><path d="M219.59,348.34v42.09h17.2a17.34,17.34,0,1,0,34.69,0h15.12V348.34Z" fill="#98d3cb"/><path d="M371,241.52H350.73a5.65,5.65,0,0,1-5.63-5.63h0a5.65,5.65,0,0,1,5.63-5.63H371a5.65,5.65,0,0,1,5.63,5.63h0A5.65,5.65,0,0,1,371,241.52Z" fill="#98d3cb"/><path d="M250.92,138.64V118.35a5.65,5.65,0,0,1,5.63-5.63h0a5.64,5.64,0,0,1,5.63,5.63v20.29a5.64,5.64,0,0,1-5.63,5.62h0A5.64,5.64,0,0,1,250.92,138.64Z" fill="#98d3cb"/><path d="M161.27,241.52H141a5.65,5.65,0,0,1-5.63-5.63h0a5.65,5.65,0,0,1,5.63-5.63h20.29a5.65,5.65,0,0,1,5.63,5.63h0A5.65,5.65,0,0,1,161.27,241.52Z" fill="#98d3cb"/><path d="M174,175.18l-14.35-14.35a5.64,5.64,0,0,1,0-8h0a5.64,5.64,0,0,1,8,0L182,167.22a5.64,5.64,0,0,1,0,8h0A5.64,5.64,0,0,1,174,175.18Z" fill="#98d3cb"/><path d="M338.67,177.73,353,163.38a5.64,5.64,0,0,0,0-8h0a5.64,5.64,0,0,0-8,0l-14.35,14.35a5.64,5.64,0,0,0,0,8h0A5.65,5.65,0,0,0,338.67,177.73Z" fill="#98d3cb"/></svg>