<svg id="Layer_1" data-name="Layer 1" xmlns="http://www.w3.org/2000/svg" viewBox="0 0 512 512"><title>magnifier-flat</title><circle cx="256" cy="256" r="256" fill="#f3eeda"/><path d="M256,110a82.29,82.29,0,1,0,82.28,82.29A82.29,82.29,0,0,0,256,110Zm0,149.22a66.93,66.93,0,1,1,66.93-66.93A66.93,66.93,0,0,1,256,259.18Z" fill="#98d3cb"/><rect x="244.87" y="265.63" width="22.25" height="80.07" fill="#98d3cb"/><path d="M273.79,384.25A17.79,17.79,0,0,1,256,402h0a17.8,17.8,0,0,1-17.79-17.79V308.64A17.8,17.8,0,0,1,256,290.84h0a17.8,17.8,0,0,1,17.79,17.8Z" fill="#98d3cb"/></svg>